<?xml version="1.0" encoding="iso-8859-1"?>
<!-- Generator: Adobe Illustrator 19.0.0, SVG Export Plug-In . SVG Version: 6.00 Build 0)  -->
<svg version="1.1" id="Capa_1" xmlns="http://www.w3.org/2000/svg" xmlns:xlink="http://www.w3.org/1999/xlink" x="0px" y="0px"
	 viewBox="0 0 448.384 448.384" style="enable-background:new 0 0 448.384 448.384;" xml:space="preserve">
<g>
	<path style="fill:#4DCFE0;" d="M343.855,361.657c19.853,0,35.527,15.673,35.527,35.527c0,19.853-15.673,35.527-35.527,35.527
		s-35.527-15.673-35.527-35.527C308.328,377.331,324.002,361.657,343.855,361.657z"/>
	<path style="fill:#4DCFE0;" d="M157.863,361.657c19.853,0,35.527,15.673,35.527,35.527c0,19.853-15.673,35.527-35.527,35.527
		s-35.527-15.673-35.527-35.527C122.336,377.331,138.01,361.657,157.863,361.657z"/>
	<polygon style="fill:#4DCFE0;" points="420.132,110.882 377.814,242.539 123.904,242.539 123.381,242.539 101.961,110.882 	"/>
</g>
<g>
	<path style="fill:#3A2C51;" d="M157.863,448.384c-28.735,0-51.2-22.465-51.2-51.2c0-28.735,22.465-51.2,51.2-51.2
		s51.2,22.465,51.2,51.2C209.063,425.918,186.598,448.384,157.863,448.384z M157.863,377.331c-10.971,0-19.853,8.882-19.853,19.853
		c0,10.971,8.882,19.853,19.853,19.853s19.853-8.882,19.853-19.853C177.716,386.212,168.834,377.331,157.863,377.331z"/>
	<path style="fill:#3A2C51;" d="M343.855,448.384c-28.735,0-51.2-22.465-51.2-51.2c0-28.735,22.465-51.2,51.2-51.2
		c28.735,0,51.2,22.465,51.2,51.2C395.055,425.918,372.589,448.384,343.855,448.384z M343.855,377.331
		c-10.971,0-19.853,8.882-19.853,19.853c0,10.971,8.882,19.853,19.853,19.853s19.853-8.882,19.853-19.853
		C363.708,386.212,354.826,377.331,343.855,377.331z"/>
	<path style="fill:#3A2C51;" d="M392.965,247.241l42.318-131.657c1.567-4.702,0.522-9.927-2.09-14.106
		c-3.135-4.18-7.837-6.269-12.539-6.269h-305.11l-11.494-71.576c-1.045-6.792-6.269-12.016-12.539-13.061L31.43,0.123
		c-8.882-1.045-17.241,4.702-18.808,13.061c-1.567,8.359,4.18,16.718,12.539,18.286l49.11,8.359l33.437,205.322l12.016,72.098
		c1.045,7.314,7.837,13.061,15.673,13.061h243.984c8.882,0,15.673-6.792,15.673-15.673s-6.792-15.673-15.673-15.673H148.459
		l-6.792-40.751h236.147C384.606,258.212,390.875,254.033,392.965,247.241z M136.965,226.865l-16.196-100.31h278.465l-32.914,100.31
		H136.965z"/>
</g>
<g>
</g>
<g>
</g>
<g>
</g>
<g>
</g>
<g>
</g>
<g>
</g>
<g>
</g>
<g>
</g>
<g>
</g>
<g>
</g>
<g>
</g>
<g>
</g>
<g>
</g>
<g>
</g>
<g>
</g>
</svg>
