<svg id="BACKGROUND" xmlns="http://www.w3.org/2000/svg" viewBox="0 0 561 353"><title>logo-burger</title><path d="M452.59,175.8l-8.25-13.63,5.54-14.84a2.55,2.55,0,0,0-.51-2.61l-10.7-11.94,2.59-15.57a2.57,2.57,0,0,0-1-2.47l-12.82-9.83L427,89.15a2.64,2.64,0,0,0-1.45-2.26l-14.48-7.38-3.44-15.42a2.68,2.68,0,0,0-1.85-2l-15.64-4.71-6.31-14.55a2.71,2.71,0,0,0-2.19-1.6l-16.27-1.88-9-13.2A2.75,2.75,0,0,0,353.93,25l-16.35,1L326.23,14.67a2.81,2.81,0,0,0-2.65-.72l-15.87,3.93L294.36,8.72a2.82,2.82,0,0,0-2.74-.24l-14.84,6.67L261.93,8.48a2.82,2.82,0,0,0-2.74.24l-13.35,9.16L230,14a2.78,2.78,0,0,0-2.64.72L216,26.05l-16.35-1a2.76,2.76,0,0,0-2.46,1.18l-9,13.2-16.26,1.87a2.75,2.75,0,0,0-2.2,1.6l-6.31,14.56-15.64,4.71a2.68,2.68,0,0,0-1.85,1.95l-3.44,15.43L128,86.89a2.61,2.61,0,0,0-1.46,2.25l-.44,15.77-12.82,9.82a2.61,2.61,0,0,0-1,2.48l2.59,15.57-10.7,11.94a2.55,2.55,0,0,0-.51,2.61l5.54,14.84L101,175.8a2.57,2.57,0,0,0,0,2.65l8.25,13.62-5.54,14.84a2.55,2.55,0,0,0,.51,2.61l10.7,11.94L112.29,237a2.61,2.61,0,0,0,1,2.48l12.82,9.83.44,15.76a2.62,2.62,0,0,0,1.45,2.25l14.48,7.39,3.44,15.42a2.65,2.65,0,0,0,1.85,1.95l15.64,4.71,6.31,14.56a2.74,2.74,0,0,0,2.19,1.6l16.27,1.88,9,13.19a2.74,2.74,0,0,0,2.46,1.18l16.35-1,11.35,11.37a2.78,2.78,0,0,0,2.65.72l15.87-3.92,13.35,9.15a2.82,2.82,0,0,0,2.74.24l14.85-6.66,14.84,6.66a2.79,2.79,0,0,0,1.16.25,2.73,2.73,0,0,0,1.58-.49l13.35-9.15,15.86,3.93a2.83,2.83,0,0,0,2.66-.73l11.35-11.37,16.35,1a2.74,2.74,0,0,0,2.46-1.19l9-13.19L381.64,313a2.75,2.75,0,0,0,2.19-1.6l6.31-14.56,15.64-4.71a2.68,2.68,0,0,0,1.85-1.95l3.44-15.42,14.48-7.39A2.62,2.62,0,0,0,427,265.1l.44-15.77,12.82-9.82a2.58,2.58,0,0,0,1-2.48l-2.58-15.57,10.7-11.94a2.55,2.55,0,0,0,.51-2.61l-5.54-14.84,8.25-13.62A2.53,2.53,0,0,0,452.59,175.8Z" fill="#cc3351"/><path d="M276.77,317.1c-80.18,0-145.42-62.79-145.42-140s65.24-140,145.42-140,145.43,62.8,145.43,140S357,317.1,276.77,317.1Zm0-278.6c-79.4,0-144,62.19-144,138.62s64.61,138.62,144,138.62,144-62.18,144-138.62S356.18,38.5,276.77,38.5Z" fill="#fff"/><rect x="13.65" y="104.22" width="537.34" height="151.93" fill="#fff"/><rect x="13.65" y="104.22" width="537.34" height="11.76" fill="#cc3351"/><rect x="13.65" y="244.4" width="537.34" height="11.76" fill="#cc3351"/><path d="M83.08,184.3v25.25l-14.3,13.77H13.3V203.86h5.38v-47.3H13.3V137.11H68.78l14.3,13.83v22l-5.91,5.68Zm-24.62-25-2.91-2.77H43.3V169H55.55l2.91-2.77Zm0,31.8-2.91-2.69H43.3v15.42H55.55l2.91-2.69Z" fill="#406bc1"/><path d="M162.43,209.49l-14.3,13.83H108.67l-14.3-13.75v-53H89V137.11h35.38v19.45H119v44.62l2.9,2.68H135l2.8-2.68V156.56h-5.38V137.11H167.8v19.45h-5.37Z" fill="#406bc1"/><path d="M203.82,203.86h5.38v19.46H173.82V203.86h5.38v-47.3h-5.38V137.11h55.49l14.29,13.83v22l-5.91,5.68,5.91,5.59v19.66H249v19.46H219V191.24l-2.9-2.8H203.82Zm0-34.88h12.26l2.9-2.77v-6.88l-2.9-2.77H203.82Z" fill="#406bc1"/><path d="M323,175.4v34.15l-14.3,13.77H269.19l-14.3-13.75V151l14.3-13.85h39.46L323,150.93v19.19H298.33V159.34l-2.79-2.78H282.42l-2.9,2.79v41.83l2.9,2.68h13.12l2.79-2.69V193.1h-6.77V175.4Z" fill="#406bc1"/><path d="M359.72,203.86h15.7v-3.42h20.22v22.88H329.73V203.86h5.37v-47.3h-5.37V137.11h65.91v22.76H375.42v-3.31h-15.7v13.87h3.66v-3.31h20.1V193.3h-20.1v-3.41h-3.66Z" fill="#406bc1"/><path d="M431.65,203.86H437v19.46H401.65V203.86H407v-47.3h-5.38V137.11h55.49l14.29,13.83v22l-5.91,5.68,5.91,5.59v19.66h5.38v19.46h-30V191.24l-2.9-2.8H431.65Zm0-34.88h12.26l2.9-2.77v-6.88l-2.9-2.77H431.65Z" fill="#406bc1"/><path d="M523.37,190.09H497l-14.3-13.73V151L497,137.11h39.46l14.3,13.82v16.91H526.16v-8.51l-2.79-2.77H510.25l-2.9,2.78V168l2.9,2.68h26.23l14.3,13.87v25l-14.3,13.77H497l-14.3-13.77V193h24.63v8.07l2.9,2.8h13.12l2.79-2.69v-8.28Z" fill="#406bc1"/><path d="M203.25,73.85,199.71,76l-1.86-2.77L208,67l1.86,2.78-3.54,2.2,11.94,17.79-3.06,1.91Z" fill="#fff"/><path d="M211.34,65.14l5.26-2.5q5.78-2.73,9.07,3.72a8.68,8.68,0,0,1,1.06,3.58,5.07,5.07,0,0,1-1.07,3.25l8.66,8.35-3.46,1.64L223,75.25l-2,.93,4.8,9.38-3.27,1.55Zm8.29,8.26,1.86-.88a3.52,3.52,0,0,0,1.26-.89,1.85,1.85,0,0,0,.46-1,3.14,3.14,0,0,0-.18-1.24,11.41,11.41,0,0,0-.66-1.51,10,10,0,0,0-.85-1.42,2.86,2.86,0,0,0-1-.89,2.07,2.07,0,0,0-1.19-.26,4.48,4.48,0,0,0-1.55.46l-1.7.81Z" fill="#fff"/><path d="M231.16,56.72l2.88-.94,13.61,21.39-3.44,1.14-2.79-4.65-4.7,1.55.76,5.32L234,81.66ZM235,62.91l-.07,0,1.3,9,3.44-1.14Z" fill="#fff"/><path d="M243.58,53l5.28-1a5.86,5.86,0,0,1,7.58,5l2.38,11.22q.72,3.38-.65,5.3A6.82,6.82,0,0,1,253.63,76l-5,1Zm8,20.06,1.65-.32a2.72,2.72,0,0,0,2-1.14,3.44,3.44,0,0,0,.15-2.4l-2.45-11.56a3.58,3.58,0,0,0-1.06-2.07,2.65,2.65,0,0,0-2.33-.35l-1.65.32Z" fill="#fff"/><path d="M260.47,50.13l3.62-.37,2.64,24.36-3.62.37Z" fill="#fff"/><path d="M271.62,52.61l-4.21.09-.07-3.3,12.07-.25.08,3.3-4.22.08.47,21.19-3.64.08Z" fill="#fff"/><path d="M282.7,49.38l3.64.21L284.8,74l-3.64-.21Z" fill="#fff"/><path d="M290.51,55.64a6.23,6.23,0,0,1,.95-2.51,5.63,5.63,0,0,1,1.7-1.64,6.14,6.14,0,0,1,2.12-.81,6.7,6.7,0,0,1,2.23,0,6.56,6.56,0,0,1,2.11.7,6.33,6.33,0,0,1,1.77,1.4,5.43,5.43,0,0,1,1.09,2.06,6.17,6.17,0,0,1,.11,2.66l-2.08,12.78a6.2,6.2,0,0,1-1,2.52,5.42,5.42,0,0,1-1.69,1.62,6,6,0,0,1-2.12.82,6.69,6.69,0,0,1-2.23,0,6.53,6.53,0,0,1-2.12-.7,6,6,0,0,1-1.76-1.4,5.41,5.41,0,0,1-1.09-2,6.07,6.07,0,0,1-.11-2.68ZM292,69a2.28,2.28,0,0,0,.43,2,2.56,2.56,0,0,0,1.61.86,2.69,2.69,0,0,0,1.81-.34,2.29,2.29,0,0,0,1-1.74L299,56.91a2.28,2.28,0,0,0-.43-2A2.6,2.6,0,0,0,297,54.1a2.62,2.62,0,0,0-1.81.34,2.31,2.31,0,0,0-1,1.74Z" fill="#fff"/><path d="M309.06,52.93l3.36,1,.91,15.66h.07l4.36-14.14,3.5,1L314,79.89,310.72,79l-1-15.64-.06,0-4.36,14.11-3.49-1Z" fill="#fff"/><path d="M330.34,60l2.77,1.2-5.18,24.6-3.33-1.44,1.25-5.22-4.53-2-3.21,4.38-3.33-1.42Zm-1.58,7-.07,0L323.3,74.4l3.33,1.43Z" fill="#fff"/><path d="M341.87,65.34l3.13,1.8-11.21,18L340,88.71l-1.88,3-9.31-5.38Z" fill="#fff"/><path d="M216.61,271l-3.6-2.11,1.79-2.82,10.32,6.05-1.79,2.82-3.61-2.11-11.44,18.1-3.11-1.83Z" fill="#fff"/><path d="M225.58,272.35l5.32,2.37q5.83,2.59,2.7,9.13a9.2,9.2,0,0,1-2.23,3,5.51,5.51,0,0,1-3.3,1.24l-1.31,11.74-3.5-1.56,1.48-10.86-2-.89-4.56,9.49-3.31-1.47Zm-1.47,11.4,1.88.84a3.87,3.87,0,0,0,1.51.39,2,2,0,0,0,1.12-.32,3.22,3.22,0,0,0,.89-.91,10.88,10.88,0,0,0,.81-1.44,11.36,11.36,0,0,0,.62-1.52,3,3,0,0,0,.12-1.28,2,2,0,0,0-.54-1.05,4.31,4.31,0,0,0-1.36-.87l-1.71-.77Z" fill="#fff"/><path d="M242.31,279.08l2.89.88L243,305l-3.48-1,.63-5.33-4.74-1.44-2.67,4.7-3.47-1Zm-.75,7.17-.06,0-4.48,8,3.47,1.05Z" fill="#fff"/><path d="M251.25,281.68l5.31.92a6.27,6.27,0,0,1,4.37,2.45,6.36,6.36,0,0,1,.76,4.87l-2.12,11.28c-.42,2.25-1.3,3.82-2.64,4.69a7.06,7.06,0,0,1-5.2.76l-5-.87Zm-.32,21.47,1.65.29a2.77,2.77,0,0,0,2.28-.36,3.45,3.45,0,0,0,1.06-2.17l2.18-11.61a3.59,3.59,0,0,0-.18-2.31,2.64,2.64,0,0,0-2-1.15l-1.65-.29Z" fill="#fff"/><path d="M265.6,283.85l3.63.28-2.08,24.41-3.63-.29Z" fill="#fff"/><path d="M274.35,287.64h-4.22v-3.3l12.08,0v3.3H278l0,21.19h-3.64Z" fill="#fff"/><path d="M283.26,284.14l3.64-.28,2,24.41-3.62.28Z" fill="#fff"/><path d="M290.39,289.44a5.91,5.91,0,0,1,.06-2.66,5.29,5.29,0,0,1,1.05-2.09,6,6,0,0,1,1.73-1.43,6.5,6.5,0,0,1,4.33-.73,6.3,6.3,0,0,1,2.14.76,5.73,5.73,0,0,1,1.73,1.61,6.33,6.33,0,0,1,1,2.49l2.34,12.73a6,6,0,0,1,0,2.69,5.38,5.38,0,0,1-1.06,2.06,6.08,6.08,0,0,1-1.72,1.43,6.68,6.68,0,0,1-2.1.74,6.42,6.42,0,0,1-2.23,0,6.24,6.24,0,0,1-2.14-.77,5.79,5.79,0,0,1-1.73-1.59,6.06,6.06,0,0,1-1-2.5Zm5.94,12.12a2.29,2.29,0,0,0,1.06,1.73,2.68,2.68,0,0,0,1.81.3,2.63,2.63,0,0,0,1.6-.88,2.28,2.28,0,0,0,.39-2L298.84,288a2.33,2.33,0,0,0-1.07-1.72,2.8,2.8,0,0,0-3.41.58,2.3,2.3,0,0,0-.38,2Z" fill="#fff"/><path d="M303.24,281.28l3.34-1,9.88,12.47.06,0-4.63-14.07,3.48-1.06,7.68,23.35-3.27,1-9.93-12.42-.07,0,4.61,14-3.47,1.05Z" fill="#fff"/><path d="M321,275.14l2.75-1.23,15.89,19.9-3.31,1.47L333.08,291l-4.5,2,1.33,5.2-3.3,1.48Zm4.48,5.77-.06,0,2.26,8.77,3.31-1.48Z" fill="#fff"/><path d="M329.51,271.15l3.1-1.84,11.46,17.85,6.14-3.66,1.92,3-9.24,5.5Z" fill="#fff"/></svg>