<svg xmlns="http://www.w3.org/2000/svg" xmlns:xlink="http://www.w3.org/1999/xlink" viewBox="0 0 389.94 323.98"><defs><style>.cls-1{isolation:isolate;}.cls-2{fill:#bc1e2d;}.cls-3{fill:#8f1722;}.cls-4{fill:#fff;}.cls-5,.cls-54,.cls-55,.cls-63,.cls-67,.cls-71{opacity:0.85;}.cls-6{fill:#00075b;}.cls-7,.cls-9{fill:#efc465;}.cls-10,.cls-36,.cls-8{fill:#df882d;}.cls-9{opacity:0.61;}.cls-16,.cls-25,.cls-27,.cls-32,.cls-33,.cls-36,.cls-52,.cls-53,.cls-62,.cls-66,.cls-70,.cls-74,.cls-9{mix-blend-mode:screen;}.cls-10{opacity:0.29;}.cls-10,.cls-15,.cls-20,.cls-21,.cls-24,.cls-26,.cls-30,.cls-34,.cls-48,.cls-49,.cls-50,.cls-51,.cls-56,.cls-57,.cls-58,.cls-60,.cls-61,.cls-65,.cls-69,.cls-72,.cls-73{mix-blend-mode:multiply;}.cls-11,.cls-16{fill:#6a412f;}.cls-12,.cls-15{fill:#794d3a;}.cls-13{fill:#83543f;}.cls-14{fill:#613d2e;}.cls-15{opacity:0.16;}.cls-16{opacity:0.31;}.cls-17{fill:#ab342a;}.cls-18,.cls-26,.cls-27{fill:#c72c22;}.cls-19{fill:#ad120c;}.cls-20,.cls-21,.cls-56,.cls-57,.cls-58,.cls-61,.cls-65,.cls-69,.cls-72,.cls-73{opacity:0.39;}.cls-20{fill:url(#linear-gradient);}.cls-21{fill:url(#linear-gradient-2);}.cls-22{fill:#9c100c;}.cls-23,.cls-24,.cls-25{fill:#e27d49;}.cls-24{opacity:0.27;}.cls-25{opacity:0.32;}.cls-26{opacity:0.41;}.cls-27{opacity:0.59;}.cls-28,.cls-30,.cls-33{fill:#ecb42a;}.cls-29{fill:#e79c25;}.cls-30{opacity:0.35;}.cls-31{fill:#f6e086;}.cls-32{opacity:0.68;}.cls-33{opacity:0.19;}.cls-34{opacity:0.73;}.cls-35{fill:#faf1e1;}.cls-36{opacity:0.24;}.cls-37{fill:url(#linear-gradient-3);}.cls-38{fill:url(#linear-gradient-4);}.cls-39{fill:url(#linear-gradient-5);}.cls-40{fill:url(#linear-gradient-6);}.cls-41{fill:url(#linear-gradient-7);}.cls-42{fill:url(#linear-gradient-8);}.cls-43{fill:url(#linear-gradient-9);}.cls-44{fill:#f5e6ad;}.cls-45,.cls-60{fill:#eece5a;}.cls-46,.cls-52,.cls-53{fill:#d12726;}.cls-47{fill:#f2db85;}.cls-48,.cls-49{opacity:0.5;}.cls-48{fill:url(#linear-gradient-11);}.cls-49{fill:url(#linear-gradient-12);}.cls-50{opacity:0.49;fill:url(#linear-gradient-13);}.cls-51{fill:#bb2423;}.cls-52{opacity:0.75;}.cls-54{fill:url(#linear-gradient-14);}.cls-55{fill:url(#linear-gradient-15);}.cls-56{fill:url(#linear-gradient-16);}.cls-57{fill:url(#linear-gradient-17);}.cls-58{fill:url(#linear-gradient-18);}.cls-59{fill:url(#radial-gradient);}.cls-60{opacity:0.3;}.cls-61{fill:url(#linear-gradient-19);}.cls-62,.cls-66,.cls-70{opacity:0.33;}.cls-62{fill:url(#linear-gradient-20);}.cls-63{fill:url(#linear-gradient-21);}.cls-64{fill:url(#radial-gradient-2);}.cls-65{fill:url(#linear-gradient-22);}.cls-66{fill:url(#linear-gradient-23);}.cls-67{fill:url(#linear-gradient-24);}.cls-68{fill:url(#radial-gradient-3);}.cls-69{fill:url(#linear-gradient-25);}.cls-70{fill:url(#linear-gradient-26);}.cls-71{fill:url(#linear-gradient-27);}.cls-72{fill:url(#linear-gradient-28);}.cls-73{fill:url(#linear-gradient-29);}.cls-74{opacity:0.23;fill:url(#linear-gradient-30);}.cls-75{fill:url(#linear-gradient-31);}.cls-76{fill:url(#linear-gradient-32);}.cls-77{fill:url(#linear-gradient-33);}</style><linearGradient id="linear-gradient" x1="-701.82" y1="-395.19" x2="-699.67" y2="-406.37" gradientTransform="matrix(-0.99, -0.14, -0.14, 0.99, -558.21, 428.47)" gradientUnits="userSpaceOnUse"><stop offset="0" stop-color="#691119"/><stop offset="0.09" stop-color="#79141d" stop-opacity="0.8"/><stop offset="0.24" stop-color="#911723" stop-opacity="0.51"/><stop offset="0.4" stop-color="#a41a27" stop-opacity="0.29"/><stop offset="0.58" stop-color="#b21c2a" stop-opacity="0.13"/><stop offset="0.77" stop-color="#b91e2c" stop-opacity="0.03"/><stop offset="1" stop-color="#bc1e2d" stop-opacity="0"/></linearGradient><linearGradient id="linear-gradient-2" x1="-691.11" y1="-390.87" x2="-691.28" y2="-379.29" xlink:href="#linear-gradient"/><linearGradient id="linear-gradient-3" x1="122.78" y1="227.25" x2="121.33" y2="270.91" gradientTransform="translate(28.29 -191.72) rotate(-1)" gradientUnits="userSpaceOnUse"><stop offset="0" stop-color="#eece5a"/><stop offset="0.63" stop-color="#d49838"/><stop offset="1" stop-color="#c77d27"/></linearGradient><linearGradient id="linear-gradient-4" x1="131.18" y1="227.53" x2="129.73" y2="271.2" xlink:href="#linear-gradient-3"/><linearGradient id="linear-gradient-5" x1="190.42" y1="229.51" x2="188.97" y2="273.17" xlink:href="#linear-gradient-3"/><linearGradient id="linear-gradient-6" x1="183.54" y1="229.28" x2="182.08" y2="272.94" xlink:href="#linear-gradient-3"/><linearGradient id="linear-gradient-7" x1="129.57" y1="224.74" x2="127.99" y2="272.05" xlink:href="#linear-gradient-3"/><linearGradient id="linear-gradient-8" x1="185.2" y1="224.29" x2="183.62" y2="271.86" xlink:href="#linear-gradient-3"/><linearGradient id="linear-gradient-9" x1="156.5" y1="264" x2="156.5" y2="368.15" xlink:href="#linear-gradient-3"/><linearGradient id="linear-gradient-11" x1="138.49" y1="307.7" x2="241.96" y2="307.7" xlink:href="#linear-gradient-3"/><linearGradient id="linear-gradient-12" x1="139.09" y1="307.7" x2="77.76" y2="307.7" xlink:href="#linear-gradient-3"/><linearGradient id="linear-gradient-13" x1="156.51" y1="322.83" x2="156.51" y2="299.07" gradientTransform="translate(28.29 -191.72) rotate(-1)" gradientUnits="userSpaceOnUse"><stop offset="0" stop-color="#eece5a"/><stop offset="0.12" stop-color="#ecca57"/><stop offset="0.25" stop-color="#e6be50"/><stop offset="0.38" stop-color="#dca943"/><stop offset="0.51" stop-color="#ce8c31"/><stop offset="0.57" stop-color="#c77d27"/></linearGradient><linearGradient id="linear-gradient-14" x1="202.14" y1="255.34" x2="194.52" y2="263.6" gradientTransform="translate(28.29 -191.72) rotate(-1)" gradientUnits="userSpaceOnUse"><stop offset="0" stop-color="#fff"/><stop offset="0.06" stop-color="#fff" stop-opacity="0.86"/><stop offset="0.16" stop-color="#fff" stop-opacity="0.66"/><stop offset="0.26" stop-color="#fff" stop-opacity="0.48"/><stop offset="0.37" stop-color="#fff" stop-opacity="0.33"/><stop offset="0.48" stop-color="#fff" stop-opacity="0.21"/><stop offset="0.59" stop-color="#fff" stop-opacity="0.12"/><stop offset="0.71" stop-color="#fff" stop-opacity="0.05"/><stop offset="0.84" stop-color="#fff" stop-opacity="0.01"/><stop offset="1" stop-color="#fff" stop-opacity="0"/></linearGradient><linearGradient id="linear-gradient-15" x1="5165.54" y1="255.38" x2="5157.92" y2="263.64" gradientTransform="matrix(-1, 0.02, 0.02, 1, 5303.63, -283.57)" xlink:href="#linear-gradient-14"/><linearGradient id="linear-gradient-16" x1="88.83" y1="259.74" x2="98.42" y2="259.74" xlink:href="#linear-gradient-3"/><linearGradient id="linear-gradient-17" x1="151.24" y1="232.37" x2="161.65" y2="232.37" xlink:href="#linear-gradient-3"/><linearGradient id="linear-gradient-18" x1="216.19" y1="259.31" x2="224.17" y2="259.31" xlink:href="#linear-gradient-3"/><radialGradient id="radial-gradient" cx="158.6" cy="219.37" r="15.59" gradientTransform="translate(28.29 -191.72) rotate(-1)" gradientUnits="userSpaceOnUse"><stop offset="0" stop-color="#eece5a"/><stop offset="0.29" stop-color="#e5bb4e"/><stop offset="0.86" stop-color="#cd8a2f"/><stop offset="1" stop-color="#c77d27"/></radialGradient><linearGradient id="linear-gradient-19" x1="150.67" y1="224.56" x2="161.64" y2="224.56" xlink:href="#linear-gradient-3"/><linearGradient id="linear-gradient-20" x1="154.59" y1="223.71" x2="162.33" y2="223.71" xlink:href="#linear-gradient-3"/><linearGradient id="linear-gradient-21" x1="161.49" y1="218.96" x2="155.18" y2="222.84" xlink:href="#linear-gradient-14"/><radialGradient id="radial-gradient-2" cx="90.64" cy="246.83" r="10.49" xlink:href="#radial-gradient"/><linearGradient id="linear-gradient-22" x1="85.31" y1="250.32" x2="92.68" y2="250.32" xlink:href="#linear-gradient-3"/><linearGradient id="linear-gradient-23" x1="87.94" y1="249.75" x2="93.15" y2="249.75" xlink:href="#linear-gradient-3"/><linearGradient id="linear-gradient-24" x1="92.58" y1="246.55" x2="88.34" y2="249.16" xlink:href="#linear-gradient-14"/><radialGradient id="radial-gradient-3" cx="225.58" cy="246.83" r="10.49" xlink:href="#radial-gradient"/><linearGradient id="linear-gradient-25" x1="220.24" y1="250.31" x2="227.62" y2="250.31" xlink:href="#linear-gradient-3"/><linearGradient id="linear-gradient-26" x1="222.88" y1="249.74" x2="228.08" y2="249.74" xlink:href="#linear-gradient-3"/><linearGradient id="linear-gradient-27" x1="227.52" y1="246.55" x2="223.28" y2="249.16" xlink:href="#linear-gradient-14"/><linearGradient id="linear-gradient-28" x1="94.05" y1="288.6" x2="207.81" y2="288.6" xlink:href="#linear-gradient-3"/><linearGradient id="linear-gradient-29" x1="105.37" y1="313.69" x2="198.57" y2="313.69" xlink:href="#linear-gradient-3"/><linearGradient id="linear-gradient-30" x1="136.21" y1="284.28" x2="224.17" y2="284.28" xlink:href="#linear-gradient-3"/><linearGradient id="linear-gradient-31" x1="273.48" y1="114.42" x2="313.18" y2="133.45" gradientTransform="translate(22.96 -38.28) rotate(8.75)" xlink:href="#linear-gradient-3"/><linearGradient id="linear-gradient-32" x1="83.91" y1="126.53" x2="122.72" y2="145.13" gradientTransform="matrix(1, 0, 0, 1, 0, 0)" xlink:href="#linear-gradient-3"/><linearGradient id="linear-gradient-33" x1="102.61" y1="120.43" x2="129.2" y2="133.18" gradientTransform="translate(-27.8 -1.7) rotate(-12.7)" xlink:href="#linear-gradient-3"/></defs><title>logo</title><g class="cls-1"><g id="OBJECTS"><circle class="cls-2" cx="192.25" cy="144.96" r="130.58"/><path class="cls-3" d="M299.74,145A107.49,107.49,0,1,1,192.25,37.47,107.49,107.49,0,0,1,299.74,145Z"/><rect class="cls-4" x="12.08" y="243.27" width="364.64" height="67.02"/><rect class="cls-2" x="11.22" y="241.98" width="364.64" height="5.27"/><rect class="cls-2" x="12.75" y="305.1" width="364.64" height="5.19"/><g class="cls-5"><path class="cls-6" d="M18.3,258.87H33.57c7.4,0,10.66,4.46,10.66,9.71,0,4-1.72,6.83-4.18,8.06,2.3,1,5,3.61,5,8.44,0,6.12-3.76,11.13-11.41,11.13H18.3ZM32,273.27c2.48,0,3.48-1.55,3.48-3.58,0-2.31-1.38-3.45-3.54-3.45H27v7Zm-5,15.59h4.59c3,0,4.21-1.57,4.21-4.24,0-2.34-1.18-4-4-4H27Z"/><path class="cls-6" d="M58.33,258.87v22.95c0,5.35,2.17,7.18,4.9,7.18,3,0,4.66-2.18,4.66-7.18V258.87h9v21.85c0,12.41-6,16.18-13.85,16.18-8.1,0-13.74-4-13.74-16.12V258.87Z"/><path class="cls-6" d="M91.69,282.1v14.11H83V258.87h15.2c7.23,0,10.72,4.71,10.72,10.34,0,5.15-2.47,7.79-4.6,8.86,1.93.82,4,3.31,4,9.63v1.55a42.45,42.45,0,0,0,.4,7h-8.57c-.52-1.61-.65-4.32-.65-8.15v-1c0-3.22-.64-5-4.6-5Zm0-7.62h4.16c3,0,4.08-1.52,4.08-4s-1.29-4-4-4h-4.2Z"/><path class="cls-6" d="M142.23,296.21h-6a32.58,32.58,0,0,1-.57-3.4c-1.74,2.78-4.72,4.16-9,4.16-9.4,0-14.13-8.64-14.13-19,0-11.45,5.48-19.79,15.71-19.79,9.27,0,13.52,6.44,14.08,12.17h-8.91c-.44-2-1.58-4.47-5.22-4.47-5.13,0-6.39,5.74-6.39,11.71s1.46,11.61,6.42,11.61c4.53,0,5.33-4,5.33-6.51v-.25H127.9v-7.65h14.33Z"/><path class="cls-6" d="M170.66,281.1h-14v7h15.6l-1,8.11H148V258.87h23.23V267H156.69v6h14Z"/><path class="cls-6" d="M185.08,282.1v14.11h-8.73V258.87h15.21c7.23,0,10.72,4.71,10.72,10.34,0,5.15-2.47,7.79-4.6,8.86,1.93.82,4,3.31,4,9.63v1.55a42.45,42.45,0,0,0,.4,7h-8.57c-.52-1.61-.66-4.32-.66-8.15v-1c0-3.22-.63-5-4.6-5Zm0-7.62h4.16c3,0,4.09-1.52,4.09-4s-1.3-4-4-4h-4.21Z"/><path class="cls-6" d="M246.73,277.51c0,10.56-5.23,19.39-15.74,19.39-10.32,0-15.31-8.78-15.31-19.34,0-10.75,5.47-19.38,15.77-19.38C241.12,258.18,246.73,266.34,246.73,277.51ZM225,277.4c0,6.85,1.88,11.62,6.32,11.62,4.68,0,6.22-5.06,6.22-11.42,0-6.82-1.64-11.54-6.33-11.54C226.79,266.06,225,270.45,225,277.4Zm15.56,12.83,8.24,6.75-4.63,6.57-10.76-8.94Z"/><path class="cls-6" d="M260.43,258.87v22.95c0,5.35,2.17,7.18,4.89,7.18,2.95,0,4.67-2.18,4.67-7.18V258.87h9v21.85c0,12.41-6,16.18-13.85,16.18-8.1,0-13.74-4-13.74-16.12V258.87Z"/><path class="cls-6" d="M307.69,281.1h-14v7h15.6l-1,8.11H285.05V258.87h23.23V267H293.71v6h14Z"/><path class="cls-6" d="M336,281.1H322v7h15.6l-1,8.11H313.38V258.87H336.6V267H322v6h14Z"/><path class="cls-6" d="M341.7,296.21V258.87h10.76c3.23,8.41,7.9,19.77,9.19,24.37h.15c-.34-3.88-.42-10.47-.42-16.43v-7.94h8.2v37.34H359.33c-2.61-6.76-8.16-20.77-9.6-25.7h-.12c.29,3.51.31,10.74.31,17.31v8.39Z"/></g><path class="cls-4" d="M187.94,233.79h-1.65c-1.09,0-2.25,0-3.53-.09l-.71,0c-1,0-1.94-.08-2.89-.14l-.63,0c-21.75-1.42-39.54-8-51.45-19.16a50.62,50.62,0,0,1-16.31-35l-.16-.17-.75-.85-.14-.16-.75-.88-.13-.17c-.25-.3-.49-.6-.72-.91l-.08-.1-.74-1,0,0c-6.61-9.24-9-20.57-5.76-26.94a7.69,7.69,0,0,1,5.48-4.28,43.87,43.87,0,0,1,1.74-6.9c.16-.49.34-1,.52-1.45,0-.12.19-.49.19-.49.12-.32.25-.63.38-.95s.15-.35.22-.53.27-.61.4-.9l.27-.57q.19-.44.42-.87l.26-.53c.17-.34.35-.66.53-1l.2-.38c.25-.45.5-.88.76-1.32.06-.11.29-.47.29-.47.17-.29.34-.58.52-.86s.23-.36.35-.53l.52-.78.38-.57c.18-.24.35-.49.53-.74l.4-.55c.19-.26.4-.53.61-.8l.34-.44c.32-.41.64-.81,1-1.21l.31-.38.72-.84.43-.48c.22-.24.43-.48.65-.71l.46-.5.66-.69.48-.49c.23-.24.48-.48.72-.72l.42-.41c.37-.36.75-.71,1.13-1.06l.2-.18c.36-.33.71-.65,1.07-1l.44-.39.82-.69.5-.41.81-.66c.17-.13.34-.26.5-.4l.87-.67.47-.35,1.15-.85.19-.14,1.41-1,.37-.25,1-.7.63-.41-.11-.48-.23-.92-.25-1-.34-1.25q-.35-1.18-.72-2.43l-.41-1.28-.34-1.07-.36-1.07-.37-1.07-.36-1.07-.36-1c-.57-1.61-1.19-3.3-1.9-5.18L128,87.58l-.87-2.28-1.63-4.17c-.46-1.15-2.26-5.72-2.26-5.72-1.64-4.14-2.92-7.47-3.88-10.21l-.27-.78c-.07-.2-.24-.72-.24-.73-.07-.19-.25-.76-.25-.78a8,8,0,0,1-4.7-7.1c0-.24,0-.48,0-.73,0,0,0-.12,0-.2s0-.15,0-.25.07-.42.11-.64,0-.16.06-.24.13-.45.2-.67c0,0,0-.12.07-.19a7.84,7.84,0,0,1,7.26-5.12h.14a8,8,0,0,1,7.62,5.75h0a5.63,5.63,0,0,1,.14.59c0,.08,0,.16,0,.25v.06c0,.12,0,.25,0,.38a5.84,5.84,0,0,1,.05.73,7.91,7.91,0,0,1-.44,2.74l.34.5.42.61.57.84.48.72,1.09,1.67,1.33,2.09,1.85,2.94a25.78,25.78,0,0,1,14.68-13.84c0-.84-.07-1.61-.09-2.34a5.45,5.45,0,0,1-.47-.37l-.07-.06-.43-.4,0,0h0a8.39,8.39,0,0,1-1.1-1.39l-.14-.23-.17-.31-.17-.35c0-.11-.1-.22-.14-.33s-.1-.25-.15-.38-.08-.22-.11-.33l-.12-.43c0-.11-.05-.2-.07-.29s-.06-.35-.09-.52,0-.15,0-.24c0-.29-.05-.54-.06-.79a8.2,8.2,0,0,1,8.06-8.35h.15a8.24,8.24,0,0,1,8.2,8.06c0,.29,0,.59,0,.9l0,.24a5.2,5.2,0,0,1-.11.67l0,.16a8,8,0,0,1-.64,1.79q.51,1.14,1.08,2.52,1.1-.06,2.16-.06a36.58,36.58,0,0,1,12,2l.56.19.45.17.44.18c.58-4,1.33-9,1.78-11.95l.31-2,.22-1.29.19-1.11.18-1c.06-.34.12-.66.18-1l0-.08a9.8,9.8,0,0,1-2.9-6.81,6.77,6.77,0,0,1,0-.9s0-.14,0-.23,0-.21,0-.31A7.39,7.39,0,0,1,179,26a2.46,2.46,0,0,1,.07-.29c.07-.29.16-.59.26-.88a1.14,1.14,0,0,1,.06-.15,9.87,9.87,0,0,1,9-6.41h.17a9.85,9.85,0,0,1,9.64,7.9c0,.07,0,.17,0,.27v.1c0,.15,0,.31.07.47a6.84,6.84,0,0,1,.06.91,9.76,9.76,0,0,1-2.65,6.89c.93,4.05,1.87,9.29,2.86,14.8.2,1.14.41,2.3.62,3.46l.08,0,.49-.2.31-.13.71-.28A36.69,36.69,0,0,1,214,50.1h.31c.35-.93.68-1.77,1-2.54a9,9,0,0,1-.45-1v0c-.09-.24-.17-.5-.24-.75l0-.12c-.06-.25-.1-.47-.14-.68l0-.21a.43.43,0,0,0,0-.05,7,7,0,0,1-.06-.89,8.21,8.21,0,0,1,8.06-8.35h.14a8.25,8.25,0,0,1,8.2,8.06c0,.26,0,.52,0,.79a1.22,1.22,0,0,1,0,.26,4,4,0,0,1-.06.5l-.06.28c0,.17-.07.32-.11.46l-.09.32c0,.14-.09.27-.14.4l-.13.33c0,.11-.1.22-.15.33l-.17.34a3,3,0,0,1-.15.26,7.87,7.87,0,0,1-1,1.38l-.06.07-.43.43,0,0a5.85,5.85,0,0,1-.47.4c0,.67,0,1.4,0,2.17a25.85,25.85,0,0,1,15.63,13.48c1.92-3.3,3.73-6.42,5.31-8.88v0l.68-1a8.1,8.1,0,0,1-.4-2.35c0-.25,0-.49,0-.74,0,0,0-.12,0-.19s0-.17,0-.27a5.43,5.43,0,0,1,.11-.62c0-.08,0-.17.06-.26a5.88,5.88,0,0,1,.19-.65l.06-.17a7.85,7.85,0,0,1,7.27-5.15h.14a8,8,0,0,1,7.62,5.74s0,0,0,0c.05.19.1.38.14.57s0,.17,0,.26a4.22,4.22,0,0,1,.06.42,6.13,6.13,0,0,1,.05.74,8,8,0,0,1-4.89,7.46c-1,3.44-2.58,8-4.69,14l-.27.75c-3.25,9.17-7.22,20.34-8.9,28.44a50.9,50.9,0,0,1,23.78,34.48c1.06,5.32,0,11.49-2.92,17.36,7.52,5,11.46,9.8,12,14.55a8.07,8.07,0,0,1-2.1,6.72,4,4,0,0,1-2.79,1.14,4.06,4.06,0,0,1-1-.14l-1.14-.27-.21,0a43.16,43.16,0,0,0-4.46-.76c1.52,18.93-13.22,49.4-60.11,55.74l-.24,0-1.86.24-.39,0-1.86.2-.16,0c-1.32.13-2.66.24-4,.33l-.31,0-1.24.07-.22,0-1.12.06-1.31,0-1.35.05-1.2,0-1.16,0-1.47,0Z"/><path class="cls-7" d="M263.08,177.16c1.46,18.17-14.51,53.3-76.66,52.63S107.69,190,117.36,161.64s61.46-32.39,92.54-26.31S261,151.52,263.08,177.16Z"/><path class="cls-8" d="M188.94,218.32c42.65.9,63.79-18,73.17-30.65-4.41,18.6-24.17,42.68-75.73,42.12-40.28-.44-61.39-17-68.65-36.36C128.47,203.9,149.85,217.49,188.94,218.32Z"/><path class="cls-9" d="M254.89,191.16c-4.28,15.88-30.83,22.91-45.13,25.78-22.8,4.58-55.7,2.25-75.24-11.28-2.24-1.55-13.4-9.68-7.86-10.79,2.9-.58,9.2,4.12,11.55,5.41,4.69,2.6,9.26,5.45,14.08,7.82,7.42,3.66,14.42,4.05,22.57,4.55,10.58.66,21.56,2.57,32.14,1,10.37-1.57,20.07-7,29.94-10.29,6.4-2.14,15.83-3.88,17.12-11.65.46-.13.84,0,1.29-.08"/><path class="cls-10" d="M213.35,227.44a129.68,129.68,0,0,1-27,2.35c-62.15-.68-78.73-39.81-69.06-68.15,2.58-7.56,8.18-13.38,15.57-17.75-3.56,5.28-5.73,13.06-6.84,17.32-1.82,6.94-1.6,14.64-1,21.77.82,9.38,7.65,16.2,13.54,23.15,5.16,6.08,9.49,10.78,17,13.88C173.76,227.53,193.64,227.94,213.35,227.44Z"/><path class="cls-11" d="M261,166.38a36.07,36.07,0,0,1-16.79,33.27c-19.54,12.81-77.27,17.06-106.91,6S119.23,159.31,121.42,155l73.46-3.27Z"/><path class="cls-12" d="M200.57,130.7c34.83,3,76.2,22.11,54.33,50.93-21.52,28.36-101.82,20.76-123.37,7.94C112.78,178.41,103.05,122.24,200.57,130.7Z"/><path class="cls-13" d="M254,160.17c6.44,2-14.14,14.7-15.84,16.1-3.39,2.81-8.62,15.13-14.06,13.52-2.06-5,5.26-12.32,8.81-15.26,4.82-4,9.9-6.81,14.16-11.33,1.8-1.91,3.9-5.06,6.93-3"/><path class="cls-13" d="M239.71,146.75c7.63,5.88-5,11.73-9.89,14.54s-10.13,5.55-14.42,9.46c-4.57,4.18-7.93,9.4-11.47,14.43-1.25,1.76-6,10-8.93,9.25-3.19-.8.23-8.16,1-9.72,5.45-11.78,15.64-17.23,26-23.92A85,85,0,0,0,234.1,151c1.69-1.59,3.37-3.4,5.61-4.2"/><path class="cls-13" d="M217.17,140.25c2.23,3.51-1.1,6.09-3.81,8.37-6.88,5.8-14.22,10.85-20.56,17.3-5.52,5.63-9.82,12-14.41,18.32-2.85,4-6.33,7.88-10.87,9.95-4.38,2-5.15-.3-3-4.05,3.72-6.42,9.66-11.79,14.95-16.88,6.16-5.94,12-12.2,18.25-18,3.87-3.55,7.12-7.58,10.76-11.34,2.53-2.62,4.94-4.24,8.68-3.68"/><path class="cls-13" d="M149.13,173.53c8.44-11.16,19.25-19.24,29.22-28.81,4-3.86,9.25-11.66,15.66-10.83.08,9-9.59,13.28-16.09,18.23-11.62,8.85-22,17.94-30.39,29.95-.57.83-4.57,7.08-6,5.6C139.5,185.46,148,175,149.13,173.53Z"/><path class="cls-13" d="M169.26,133.73c2.64,2.63-1.78,5.23-3.64,6.54-5.25,3.68-10.37,7.15-14.77,11.89-6.67,7.17-12.75,15.78-20.23,22.14-1.72,1.46-3.45,2-3.82-.78-.51-3.94,4.55-8.42,7.1-10.66,3.74-3.28,7.45-6.25,10.7-10.05,3.74-4.36,7.28-9,11.7-12.69,2.25-1.9,10.51-9.43,13.34-5.63"/><path class="cls-13" d="M141.23,138.17c.56.37,1,.83,1.72,1.22.25,2.57-3.88,4.76-5.37,6.48a83.14,83.14,0,0,1-7.12,7c-1.49,1.36-5.65,7.64-8,6.81-1.39-6.81,7.89-12.38,12.65-15.68,1.81-1.26,5-6.06,7.23-5.5"/><path class="cls-14" d="M255.41,160.38c6.44,2-14.14,14.7-15.83,16.1-3.4,2.81-8.63,15.13-14.06,13.52-2.07-5,5.25-12.32,8.8-15.27,4.82-4,9.9-6.8,14.16-11.32,1.8-1.91,3.9-5.06,6.93-3"/><path class="cls-14" d="M242.26,147.1c7.62,5.89-5,11.74-9.9,14.55s-10.12,5.54-14.41,9.46c-4.57,4.17-7.94,9.4-11.48,14.43-1.24,1.76-6,10-8.93,9.24-3.18-.79.24-8.15,1-9.72,5.46-11.77,15.65-17.22,26-23.91a84.83,84.83,0,0,0,12.12-9.85c1.7-1.59,3.38-3.39,5.62-4.2"/><path class="cls-14" d="M219.53,140.56c2.23,3.51-1.11,6.09-3.81,8.37-6.88,5.8-14.22,10.85-20.56,17.3-5.52,5.63-9.83,12-14.41,18.32-2.85,4-6.34,7.88-10.87,9.95-4.38,2-5.16-.3-3-4.05,3.71-6.42,9.65-11.79,14.94-16.89,6.17-5.93,12-12.2,18.26-18C204,152,207.2,148,210.84,144.24c2.53-2.62,4.95-4.25,8.69-3.68"/><path class="cls-14" d="M151.48,173.83c8.44-11.15,19.25-19.23,29.23-28.8,4-3.86,9.24-11.67,15.66-10.83.07,9-9.6,13.28-16.09,18.22-11.63,8.85-22.06,18-30.4,30-.57.82-4.57,7.08-6,5.6C141.85,185.77,150.39,175.28,151.48,173.83Z"/><path class="cls-14" d="M170.66,133.94c2.64,2.63-1.78,5.23-3.64,6.53-5.25,3.69-10.37,7.16-14.77,11.9-6.67,7.17-12.75,15.78-20.23,22.14-1.72,1.46-3.45,2-3.81-.78-.52-3.95,4.54-8.42,7.1-10.66,3.74-3.28,7.44-6.26,10.7-10,3.74-4.37,7.27-9,11.69-12.69,2.25-1.9,10.51-9.43,13.34-5.63"/><path class="cls-14" d="M142.63,138.37c.56.38,1.05.83,1.72,1.23.25,2.57-3.88,4.76-5.36,6.47a83.36,83.36,0,0,1-7.13,7.06c-1.49,1.36-5.64,7.63-8,6.81-1.39-6.81,7.89-12.38,12.65-15.69,1.82-1.26,5-6.05,7.23-5.49"/><path class="cls-13" d="M188,198.88c1.61-3,13.07-1.61,15.82-1.9,11.34-1.18,23.33-2.92,34.11-6.88,5.07-1.87,8.54-4.85,12.25-8.64,2.52-2.58,7.47-5.9,8.41-4.48s-8.33,13.45-20.24,17.25a143.18,143.18,0,0,1-25.55,5.66c-5.58.74-13.83,2.45-19.49,1.83C191.31,201.5,186.56,201.62,188,198.88Z"/><path class="cls-15" d="M121.42,155c4.79-11.74,18.58-22.34,47.74-24.69-.9.24-1.68.46-2.23.66-5.57,2.08-11.29,4.64-15.37,9.12-4.77,5.22-9.69,12.71-9.57,20,.26,15.5,11.46,28,25.92,32.73,4.84,1.59,10.66,2.81,15.16,5.14,3.41,1.77,1.48,2.37-1.06,2.56-4.14.3-14.68-1.9-13.5,5.13.45,2.69,2.57,4.1,4.87,5.19.68.32,1.85.65,2.93,1.07-14.56-.38-28.55-2.36-39-6.25C107.64,194.67,119.23,159.31,121.42,155Z"/><path class="cls-16" d="M187.21,206.55c3.34-2.09,9.27-1.82,13-2.15a210.07,210.07,0,0,0,25.38-3.34c3.65-.76,11.57-3.79,13.42-2.9.75,2.6-5.42,3.39-8.07,4-5.35,1.25-10.72,2.32-16,3.71-8.14,2.12-17.81,4.37-26.27,3.18C186.33,208.73,184.67,208.13,187.21,206.55Z"/><path class="cls-16" d="M229,142.3c8,4.21,17.62,8.89,21.82,17.45,4.09,8.33-.31,16.3-8,20.36-17.07,9-36.57,2-54.63,2.34-15.8.32-13.4-17.7-6.26-27.09,7.77-10.23,18.43-12.49,30.28-14.37,7-1.12,12,.21,18.69,1.55"/><path class="cls-17" d="M227.58,133.27s.74,7.72-3.43,11.23-23.81,9.43-42.58,10.89-28.73-1.1-35.73-5.08l-.88-8.38Z"/><path class="cls-18" d="M227.58,133.27c.84,3.31-12.44,13.36-43.93,15.53s-39-3-38.69-6.87,15-10.57,36.55-11.93S226.55,129.23,227.58,133.27Z"/><path class="cls-19" d="M189.11,136.17c1.7.19,22.64,2.08,23.44-.34s-13.44-3.84-19.47-4.19-22.41-.38-21.27,2.07,3.95,2.86,6.37,2.74,6.85-1.55,8.54-1.65S188.33,136.09,189.11,136.17Z"/><path class="cls-20" d="M189.11,136.17c1.7.19,22.64,2.08,23.44-.34s-13.44-3.84-19.47-4.19-22.41-.38-21.27,2.07,3.95,2.86,6.37,2.74,6.85-1.55,8.54-1.65S188.33,136.09,189.11,136.17Z"/><path class="cls-19" d="M186.29,139.12c.89-2,18.11,0,17.48,2s-22.79,4.67-32.27,3.67-16.74-3.19-12.4-6.35,16.47-1.33,17.93-1.12-5.38,2.38-1.19,3.52S185.27,141.4,186.29,139.12Z"/><path class="cls-21" d="M186.29,139.12c.89-2,18.11,0,17.48,2s-22.79,4.67-32.27,3.67-16.74-3.19-12.4-6.35,16.47-1.33,17.93-1.12-5.38,2.38-1.19,3.52S185.27,141.4,186.29,139.12Z"/><path class="cls-22" d="M175,139a3,3,0,0,1,1-.88,5.52,5.52,0,0,1,.71-.28A19.27,19.27,0,0,0,175,139Z"/><path class="cls-22" d="M175.84,140.84c4.19,1.15,9.43.56,10.45-1.72a.75.75,0,0,1,.29-.3l0,.16a9.82,9.82,0,0,1-.84,4.08c-.57,1.16-2.17,1.37-3.3,1.52a22.29,22.29,0,0,1-5.77-.23c-1.25-.15-2.09-.19-2.35-1.59a5.53,5.53,0,0,1,.15-2.7C174.62,140.35,175,140.62,175.84,140.84Z"/><path class="cls-23" d="M202.45,136.9c-.42-.82,2.39-4.23,4.7-3.81,1.19.21,2.28,1.21,1.43,2.38-1.05,1.43-4.51,1.62-6.13,1.43"/><path class="cls-24" d="M202.45,136.9c-.31-.62,1.21-2.72,3-3.53-.9.58-1.77,1.43-1.31,2.29a1.69,1.69,0,0,0,1.34.8l1.16.14A12.17,12.17,0,0,1,202.45,136.9Z"/><path class="cls-25" d="M207.85,134.12c.85.93-1.61,2.4-1.7.95a1.17,1.17,0,0,1,1.09-1.32c.37,0,.76.06.63.5"/><path class="cls-23" d="M194.64,136.18c-.35-.85,2.73-4,5-3.43,1.17.31,2.18,1.39,1.23,2.49-1.16,1.34-4.62,1.25-6.22.94"/><path class="cls-24" d="M194.64,136.18c-.26-.65,1.43-2.62,3.25-3.28-.94.5-1.87,1.28-1.49,2.17a1.67,1.67,0,0,0,1.28.91l1.14.23A12.32,12.32,0,0,1,194.64,136.18Z"/><path class="cls-25" d="M200.24,133.84c.78,1-1.79,2.26-1.77.81a1.17,1.17,0,0,1,1.2-1.23c.38,0,.75.11.59.55"/><path class="cls-23" d="M188.35,135.49c-.55-.74,1.66-4.57,4-4.54,1.21,0,2.46.81,1.8,2.11-.79,1.59-4.18,2.34-5.8,2.43"/><path class="cls-24" d="M188.35,135.49c-.41-.56.75-2.89,2.35-4-.79.72-1.5,1.7-.91,2.48a1.66,1.66,0,0,0,1.45.56l1.17-.06A11.94,11.94,0,0,1,188.35,135.49Z"/><path class="cls-25" d="M193.21,131.85c1,.78-1.19,2.63-1.52,1.22a1.18,1.18,0,0,1,.86-1.49c.36-.09.76-.07.71.39"/><path class="cls-23" d="M189.82,141.2c0-1.11,4.76-3.44,7.08-1.83,1.2.84,1.91,2.49.37,3.35-1.86,1-5.77-.5-7.45-1.52"/><path class="cls-24" d="M189.82,141.2c0-.83,2.71-2.37,5.05-2.38-1.28.18-2.66.68-2.59,1.86a2,2,0,0,0,1.07,1.55c.39.25.8.5,1.21.74A15,15,0,0,1,189.82,141.2Z"/><path class="cls-25" d="M197.15,140.86c.47,1.46-3,1.83-2.35.19a1.44,1.44,0,0,1,1.88-.9c.42.15.8.44.44.87"/><path class="cls-23" d="M182,143.18c0-1.12,4.76-3.45,7.09-1.84,1.2.84,1.9,2.49.36,3.35-1.86,1-5.77-.5-7.45-1.51"/><path class="cls-24" d="M182,143.18c0-.84,2.71-2.38,5-2.38-1.28.17-2.65.68-2.59,1.85a2,2,0,0,0,1.07,1.55c.4.26.8.5,1.21.74A15,15,0,0,1,182,143.18Z"/><path class="cls-25" d="M189.29,142.83c.47,1.46-3,1.83-2.35.19a1.44,1.44,0,0,1,1.88-.9c.42.15.8.44.44.87"/><path class="cls-23" d="M179.27,135.54c.43-.81-2.3-4.29-4.61-3.92-1.2.18-2.32,1.16-1.48,2.35,1,1.45,4.47,1.72,6.09,1.57"/><path class="cls-24" d="M174.21,131.73c-.74,2.17,1.23,3,2.86,3.78-1.55-.15-3.24-.59-3.89-1.54S173.21,132.06,174.21,131.73Z"/><path class="cls-25" d="M176.64,132.71c.25.31,1.21,1.25,1,1.68-.28.67-1.54-.43-1.79-.72-.8-.91.13-1.27.91-.88"/><path class="cls-23" d="M171.87,140.22c0-1.09-4.87-3.11-7.05-1.39-1.13.89-1.73,2.54-.18,3.3,1.9.92,5.64-.82,7.23-1.91"/><path class="cls-24" d="M164.41,139.2c.5,2.69,3,2.35,5.17,2.26-1.7.74-3.7,1.27-4.94.67S163.57,140.13,164.41,139.2Z"/><path class="cls-25" d="M167.5,138.81c.45.17,2,.6,2.05,1.14.09.86-1.84.45-2.28.3-1.36-.48-.6-1.39.44-1.44"/><path class="cls-23" d="M178.55,142.69c0-1.09-4.87-3.1-7.06-1.39-1.13.89-1.72,2.55-.17,3.31,1.89.91,5.63-.82,7.23-1.92"/><path class="cls-24" d="M171.09,141.68c.5,2.68,3,2.35,5.16,2.26-1.69.74-3.7,1.26-4.93.67S170.25,142.6,171.09,141.68Z"/><path class="cls-25" d="M174.18,141.29c.44.17,2,.6,2,1.14.1.86-1.84.45-2.28.29-1.35-.48-.59-1.39.45-1.44"/><path class="cls-23" d="M185.41,134.18c.27-.8-2.72-3.54-4.76-2.87-1.06.35-1.93,1.4-1,2.36,1.13,1.16,4.31.89,5.76.51"/><path class="cls-24" d="M180.07,131.58a2,2,0,0,0,.27.89,4,4,0,0,0,1.13,1.31,7.45,7.45,0,0,0,1.38.73,4.59,4.59,0,0,1-3.2-.84C178.9,132.89,179.32,132.06,180.07,131.58Z"/><path class="cls-25" d="M182.7,132c.34.27,1.25.58,1.16,1.16-.14.91-1.39.1-1.74-.22-.84-.78.09-1.57.63-.88"/><path class="cls-26" d="M181.57,155.39c-18.78,1.46-28.73-1.1-35.73-5.08l-.77-7.35a3,3,0,0,1-.11-1c.27-3.22,10.62-8.46,26.61-10.88-1.21.58-2.42,1.18-3.62,1.8-1.82.93-3.93,1.68-5.53,3-3,2.5-3.13,5.58-.48,8.41,2.2,2.36,5.18,3.15,8.26,3.65,4.44.72,8.94,1.43,13.42,1.84,8.86.83,18,.52,26.92.36A151,151,0,0,1,181.57,155.39Z"/><path class="cls-27" d="M226.21,135.62c1.18.63-2.65,3.24-3.34,3.67a43.43,43.43,0,0,1-8.37,3.79,81,81,0,0,1-8.41,2.88c-1.5.33-4.8,1.78-6.27,1.19-.16-2.08,4.77-2.17,6.11-2.44a40.17,40.17,0,0,0,6.79-2.29c3.56-1.41,7.73-2.5,11-4.61,1-.68,1.62-1.88,2.69-2.31"/><path class="cls-28" d="M195,120.59c-5.27-1.11-4.85,16.33-21.83,21.16s-50.74,13.07-62.15,6.74-10.67,26.72,17.72,38.36,38.08,7.22,45.19,13.3,8.32,20.37,12.43,19.51S194,194,208,186.54,253,168.46,273.9,174.07c0,0,6.73-6.55-15.44-18.75s-34.17-9.2-46.7-17.86S195,120.59,195,120.59Z"/><path class="cls-29" d="M207.38,183.54c-14.39,7-18.33,28.36-20.61,29.12s-2.36-3.77-9-13-15.26-4.7-41.43-12.94c-18.85-5.94-28.19-20.58-31.94-28.31,1.47,9.24,8.71,22.09,24.31,28.49,28.4,11.64,38.08,7.22,45.19,13.3s8.32,20.37,12.43,19.51S194,194,208,186.54,253,168.46,273.9,174.07a4,4,0,0,0,1-2.75C254.29,160.18,221.35,176.74,207.38,183.54Z"/><path class="cls-30" d="M186.31,139.74a18,18,0,0,0,4.91,1c2,0,3.83-.76,5.8-.8,2.38-.05,5,.95,7.36.35,2.18-.56,1.81-2.16.22-3.25-2.19-1.51-4.94-2-6.89-3.88-1.19-1.15-1.34-3.2-2.45-4.19-2.28-2-4.4,4.73-5.37,5.84s-6.3,3.61-2.53,5.15"/><path class="cls-30" d="M118.14,157c-2.58,10.25,12.82,16.27,20.47,17.76,4.39.85,8.89.79,13.19,2.09,4.13,1.24,8.13,3.34,12.52,3.53,2,.08,6.23-.4,5-3.35-.91-2.19-4.56-3.24-6.27-4.73-2.19-1.92-3.06-4.83-5.17-6.78-3.11-2.88-8.19-2.27-12.09-2.34a57.86,57.86,0,0,1-20.32-3.82c-1.74-.69-5.76-3.36-7.6-1.67"/><path class="cls-30" d="M178.17,193.19c2.8-.66,9.28-2.31,11.11.81,1.34,2.31-.18,7-.7,9.39s-2.35,5-4.42,2.36c-1.72-2.23-1.76-5.81-3.16-8.28-.72-1.26-3.67-3-2.07-4.53"/><path class="cls-31" d="M106.76,162c-.59.92.52,2.35,1,3.16a48.49,48.49,0,0,0,2.93,4.21,28.84,28.84,0,0,0,3,3.79c.94.85,2.06,2.28,3.35,2.51.3-1-1.59-1.9-2.24-2.54a29.55,29.55,0,0,1-2.17-2.29c-1.54-1.87-2.58-4.13-4-6a15.89,15.89,0,0,1-1.26-1.92c-.17-.34-.4-1.51-.81-.82"/><path class="cls-31" d="M139.61,186.81a2.77,2.77,0,0,0-.09.86c3.21,1.78,7.38,1.48,10.89,2.51s7.28,1.44,10.85,2.58c7,2.24,13.16,2.92,17.92,9.29,1.53,2,2.29,6.42,4.78,7.51.72-2.67-3.28-6-4.47-8.23-1.54-2.84-3.2-5.15-6.17-6.68s-6.77-1.76-10.09-2.6c-3.9-1-7.92-2.21-11.89-2.85-1.76-.29-11-3.67-11.78-2"/><path class="cls-31" d="M271.74,169.19c0,1.57-4.36.29-5.45.13-3.08-.43-6.17-1-9.26-1.31-4.6-.51-8.66,1.78-13.07,1.92,0-2.67,7.12-2.44,8.87-2.57,4.19-.32,8.73.36,12.93.62,2,.12,4.36.44,5.9,1.75"/><g class="cls-32"><path class="cls-28" d="M206.45,186.31c-13.84,7.28-17.49,31.35-21.51,33a1.73,1.73,0,0,0,1.38.32c4.11-.87,7.64-25.71,21.72-33.12,12.77-6.72,39.28-16.1,59.71-13.64C247.12,169.73,219.54,179.41,206.45,186.31Z"/><path class="cls-28" d="M109.39,148.26a19.59,19.59,0,0,0,7.18,2,17.59,17.59,0,0,1-5.59-1.77,5.26,5.26,0,0,0-2.92-.79A6.66,6.66,0,0,1,109.39,148.26Z"/><path class="cls-28" d="M258.46,155.32c-22.16-12.2-34.17-9.2-46.7-17.86S195,120.59,195,120.59a2,2,0,0,0-1.37.17c1,1.72,5.65,8.92,16.57,16.47,12.53,8.66,24.54,5.66,46.7,17.86,20.4,11.23,16.34,17.67,15.56,18.62.5.12,1,.23,1.48.36C273.9,174.07,280.63,167.52,258.46,155.32Z"/></g><path class="cls-33" d="M202.83,145.83a32.69,32.69,0,0,1-4.51,14.42c-3.14,5.48-8.78,11.18-9.8,17.6-1,6.18,3.6,6.5,8.06,3.92,7.2-4.17,12.42-10.12,20.45-13.16,9.16-3.45,18.74-4.1,28.42-3.59,2.93.16,10.66,1.28,10.49-3.62-.22-6.61-23.47-9.22-28.41-10.49-5.67-1.45-11-3.29-16.53-5.18-2.77-.94-6.72-2.41-8.63.75"/><path class="cls-8" d="M265.77,139.08c3.05,15.31-14.59,45.63-79,45.32s-83-20.45-74.27-46.21,43.7-43.64,78.48-43.3S259.05,105.36,265.77,139.08Z"/><path class="cls-7" d="M111.06,154.66c2.35,1.31,4.65,2.74,7,3.93,5.53,2.8,11.76,4.1,17.49,6.4,8.06,3.23,16.53,6.93,25.33,6.64,9.18-.3,18.63,2,27.61.5,12.27-2,24.46-3,36.64-5.74,13.39-3,25.89-7.94,38.38-13.17-7,14.83-29,31.41-76.7,31.18C137,184.16,114.63,172.05,111.06,154.66Z"/><g class="cls-34"><path class="cls-8" d="M214.66,130.66c.35-.62,5.22.4,4.08,2.31C217.79,134.57,214.31,131.27,214.66,130.66Z"/><path class="cls-8" d="M203.17,117.56c.7.09,1.62,5-.59,4.66C200.75,121.94,202.47,117.47,203.17,117.56Z"/><path class="cls-8" d="M226.28,102.36c.35-.61,5.22.41,4.08,2.33C229.41,106.28,225.93,103,226.28,102.36Z"/><path class="cls-8" d="M163.85,102.68c.35-.61,5.22.41,4.08,2.32C167,106.6,163.5,103.29,163.85,102.68Z"/><path class="cls-8" d="M151.89,108.26c.35-.61,5.22.41,4.08,2.32C155,112.18,151.54,108.87,151.89,108.26Z"/><path class="cls-8" d="M200.31,131.51c.7,0,2.24,4.73,0,4.69C198.47,136.17,199.6,131.51,200.31,131.51Z"/><path class="cls-8" d="M240.78,113.29c.7,0,2.24,4.73,0,4.69C238.93,118,240.07,113.29,240.78,113.29Z"/><path class="cls-8" d="M169.73,129.56c.47.53-2.1,4.8-3.53,3.09C165,131.23,169.27,129,169.73,129.56Z"/><path class="cls-8" d="M182.34,129.49c.67.22.69,5.19-1.42,4.48C179.17,133.37,181.67,129.28,182.34,129.49Z"/><path class="cls-8" d="M177.36,119.17c.3.64-3.36,4-4.25,2C172.36,119.45,177.06,118.53,177.36,119.17Z"/><path class="cls-8" d="M197.72,114c.3.64-3.35,4-4.25,2C192.72,114.3,197.42,113.38,197.72,114Z"/><path class="cls-8" d="M217.94,103.38c.3.64-3.36,4-4.26,2C212.94,103.66,217.64,102.74,217.94,103.38Z"/><path class="cls-8" d="M233.57,121.59c.29.64-3.36,4-4.26,2C228.57,121.87,233.27,121,233.57,121.59Z"/><path class="cls-8" d="M162.05,124.25c-.19.68-5.16.92-4.54-1.22C158,121.25,162.23,123.57,162.05,124.25Z"/><path class="cls-8" d="M208,102c-.18.68-5.15.92-4.53-1.22C204,99,208.15,101.27,208,102Z"/><path class="cls-8" d="M191.07,105.38c-.51.48-4.86-1.93-3.21-3.42C189.24,100.72,191.59,104.89,191.07,105.38Z"/><path class="cls-8" d="M135.6,123.51c-.18.68-5.15.92-4.53-1.22C131.59,120.51,135.79,122.83,135.6,123.51Z"/><path class="cls-8" d="M189.44,112.81c-.18.68-5.15.92-4.53-1.22C185.43,109.81,189.63,112.13,189.44,112.81Z"/><path class="cls-8" d="M146.49,113.29c.3.63-3.36,4-4.25,2C141.49,113.57,146.19,112.65,146.49,113.29Z"/><path class="cls-8" d="M146.73,123.56c.33.62-3.16,4.17-4.15,2.18C141.75,124.07,146.41,122.93,146.73,123.56Z"/><path class="cls-8" d="M163.56,112.46c.33.63-3.16,4.17-4.16,2.18C158.58,113,163.23,111.84,163.56,112.46Z"/><path class="cls-8" d="M182.36,101.76c.32.63-3.16,4.17-4.16,2.18C177.37,102.28,182,101.14,182.36,101.76Z"/><path class="cls-8" d="M203.64,107.36c.33.63-3.16,4.17-4.15,2.18C198.66,107.88,203.32,106.74,203.64,107.36Z"/><path class="cls-8" d="M217.4,114.78c.33.62-3.16,4.17-4.16,2.17C212.42,115.29,217.07,114.15,217.4,114.78Z"/><path class="cls-8" d="M193.48,127.94c-.68-.19-.84-5.17,1.29-4.51C196.54,124,194.16,128.13,193.48,127.94Z"/><path class="cls-8" d="M151.31,133.33c-.43-.55,2.38-4.66,3.71-2.87C156.12,132,151.74,133.89,151.31,133.33Z"/><path class="cls-8" d="M184.1,139.92c-.43-.56,2.38-4.66,3.71-2.87C188.91,138.54,184.53,140.48,184.1,139.92Z"/><path class="cls-8" d="M216.74,125.31c-.43-.55,2.38-4.66,3.71-2.87C221.55,123.93,217.17,125.87,216.74,125.31Z"/><path class="cls-8" d="M184.51,120.44c.1-.7,5-1.55,4.65.65C188.86,122.92,184.41,121.13,184.51,120.44Z"/><path class="cls-8" d="M228.42,115.1c-.67-.2-.83-5.17,1.3-4.51C231.49,111.13,229.1,115.29,228.42,115.1Z"/><path class="cls-8" d="M198.07,102.35c-.67-.2-.84-5.17,1.29-4.51C201.14,98.38,198.75,102.54,198.07,102.35Z"/><path class="cls-8" d="M169.88,113.69c-.67-.19-.83-5.17,1.3-4.51C173,109.73,170.56,113.88,169.88,113.69Z"/></g><path class="cls-35" d="M214.33,130.13c.35-.61,5.22.4,4.08,2.32C217.46,134,214,130.74,214.33,130.13Z"/><path class="cls-35" d="M202.84,117c.7.09,1.61,5-.59,4.66C200.41,121.42,202.14,116.94,202.84,117Z"/><path class="cls-35" d="M226,101.84c.35-.62,5.22.4,4.08,2.32C229.08,105.75,225.6,102.45,226,101.84Z"/><path class="cls-35" d="M163.52,102.16c.35-.61,5.22.4,4.08,2.32C166.65,106.07,163.17,102.77,163.52,102.16Z"/><path class="cls-35" d="M151.56,107.74c.34-.62,5.22.4,4.07,2.31C154.68,111.65,151.21,108.35,151.56,107.74Z"/><path class="cls-35" d="M200,131c.71,0,2.24,4.73,0,4.69C198.13,135.65,199.27,131,200,131Z"/><path class="cls-35" d="M240.44,112.76c.7,0,2.24,4.73,0,4.69C238.6,117.42,239.74,112.76,240.44,112.76Z"/><path class="cls-35" d="M169.4,129c.46.54-2.1,4.8-3.53,3.09C164.68,130.7,168.94,128.51,169.4,129Z"/><path class="cls-35" d="M182,129c.67.21.68,5.19-1.42,4.47C178.83,132.84,181.34,128.76,182,129Z"/><path class="cls-35" d="M177,118.65c.3.64-3.35,4-4.25,2C172,118.93,176.73,118,177,118.65Z"/><path class="cls-35" d="M197.38,113.49c.3.64-3.35,4-4.25,2C192.39,113.77,197.09,112.85,197.38,113.49Z"/><path class="cls-35" d="M217.6,102.86c.3.63-3.35,4-4.25,2C212.6,103.14,217.31,102.22,217.6,102.86Z"/><path class="cls-35" d="M233.23,121.06c.3.64-3.35,4-4.25,2C228.23,121.34,232.94,120.42,233.23,121.06Z"/><path class="cls-35" d="M161.71,123.72c-.18.68-5.15.92-4.53-1.22C157.7,120.72,161.89,123,161.71,123.72Z"/><path class="cls-35" d="M207.63,101.42c-.19.68-5.15.92-4.53-1.22C203.62,98.42,207.81,100.74,207.63,101.42Z"/><path class="cls-35" d="M190.74,104.85c-.51.48-4.87-1.92-3.21-3.42C188.9,100.19,191.25,104.37,190.74,104.85Z"/><path class="cls-35" d="M135.27,123c-.18.68-5.16.92-4.53-1.22C131.26,120,135.45,122.3,135.27,123Z"/><path class="cls-35" d="M189.11,112.28c-.18.68-5.16.92-4.53-1.22C185.09,109.28,189.29,111.6,189.11,112.28Z"/><path class="cls-35" d="M146.15,112.76c.3.64-3.35,4-4.25,2C141.15,113,145.86,112.12,146.15,112.76Z"/><path class="cls-35" d="M146.4,123c.33.63-3.16,4.17-4.16,2.18C141.42,123.55,146.07,122.41,146.4,123Z"/><path class="cls-35" d="M163.22,111.93c.33.63-3.16,4.17-4.15,2.18C158.24,112.45,162.9,111.31,163.22,111.93Z"/><path class="cls-35" d="M182,101.24c.33.62-3.16,4.17-4.15,2.17C177,101.75,181.7,100.61,182,101.24Z"/><path class="cls-35" d="M203.31,106.84c.33.62-3.16,4.17-4.16,2.17C198.33,107.35,203,106.21,203.31,106.84Z"/><path class="cls-35" d="M217.07,114.25c.32.63-3.17,4.17-4.16,2.18C212.08,114.77,216.74,113.63,217.07,114.25Z"/><path class="cls-35" d="M193.15,127.41c-.68-.19-.84-5.16,1.29-4.51C196.21,123.45,193.82,127.61,193.15,127.41Z"/><path class="cls-35" d="M151,132.8c-.42-.55,2.38-4.66,3.71-2.87C155.79,131.42,151.41,133.36,151,132.8Z"/><path class="cls-35" d="M183.76,139.4c-.43-.56,2.38-4.67,3.71-2.88C188.58,138,184.19,140,183.76,139.4Z"/><path class="cls-35" d="M216.4,124.79c-.43-.56,2.38-4.66,3.71-2.88C221.22,123.4,216.83,125.35,216.4,124.79Z"/><path class="cls-35" d="M184.18,119.91c.1-.7,5-1.55,4.64.65C188.52,122.39,184.08,120.61,184.18,119.91Z"/><path class="cls-35" d="M228.09,114.57c-.68-.19-.84-5.17,1.29-4.51C231.15,110.61,228.76,114.77,228.09,114.57Z"/><path class="cls-35" d="M197.74,101.82c-.68-.19-.84-5.17,1.29-4.51C200.8,97.86,198.41,102,197.74,101.82Z"/><path class="cls-35" d="M169.55,113.16c-.68-.19-.84-5.16,1.29-4.51C172.61,109.2,170.23,113.36,169.55,113.16Z"/><path class="cls-10" d="M112.53,138.19c5.15-15.31,19.61-27.83,37.78-35.4-8.95,7.57-15.69,16.08-15.94,29.12-.17,9.33,4.57,16.68,11.38,22.6,16.64,14.49,43.09,8.18,63.05,10.81,14.58,1.93,30.49,1.69,45.33.12-11.64,10.44-32.73,19.12-67.33,19C122.42,184.09,103.85,164,112.53,138.19Z"/><path class="cls-36" d="M199.88,99.18c18.66,2.39,41.48,10.18,50.63,28.19,12.95,25.51-35.18,28.68-48.66,27.73a139.53,139.53,0,0,1-32.46-6c-7.62-2.43-17.16-5.81-22-12.71-5.49-7.86-.63-18.16,5.41-24.24,8.86-8.92,22.87-8.84,34.55-11,4.83-.88,9.15-2,14.06-1.91"/><path class="cls-37" d="M159,44.79a4.21,4.21,0,1,1-4.28-4.13A4.21,4.21,0,0,1,159,44.79Z"/><path class="cls-38" d="M156.64,86.9c.9-4-4.93-41.33-1.7-42s13.19,33.31,16.51,37.84S154.07,98.12,156.64,86.9Z"/><path class="cls-39" d="M218.32,43.76a4.21,4.21,0,1,0,4.14-4.28A4.21,4.21,0,0,0,218.32,43.76Z"/><path class="cls-40" d="M222.18,85.75c-1-3.91,3.48-41.46.24-42s-12,33.75-15.19,38.38S225.13,96.88,222.18,85.75Z"/><path class="cls-41" d="M157.54,48.05a4.2,4.2,0,1,0-6.92-3.11A4.22,4.22,0,0,0,154,49c-.23,9.94,3.4,34.74,2.67,37.92-2.57,11.22,18.12.33,14.81-4.19C168.79,79.07,161.85,56.49,157.54,48.05Z"/><path class="cls-42" d="M226.73,43.61A4.21,4.21,0,1,0,219.92,47c-4,8.59-10.16,31.4-12.69,35.12-3.15,4.64,17.9,14.8,15,3.67-.84-3.15,1.92-28.06,1.35-38A4.21,4.21,0,0,0,226.73,43.61Z"/><path class="cls-43" d="M256.29,54.12c3.59.65-13.81,38-15.1,54.2,0,0-15,6.39-51,7s-51.23-5.24-51.23-5.24c-1.88-16.14-20.57-52.86-17-53.64,2-.45,8.42,10.95,15,21,5.13,7.87,10.34,14.92,13.6,14.86,7.43-.13,7.65-22,9.73-22s1.28,22.3,11.63,19.44c5-1.35,7.9-15.71,10.13-30.21,2.39-15.61,4-31.42,6.66-31.46s4.79,15.7,7.72,31.21c2.74,14.41,6.15,28.66,11.18,29.83,10.45,2.5,8.87-19.79,10.95-19.83S221.56,91.11,229,91c3.26,0,8.22-7.28,13.06-15.32C248.26,65.36,254.29,53.74,256.29,54.12Z"/><path class="cls-43" d="M256.29,54.12c3.59.65-13.81,38-15.1,54.2,0,0-15,6.39-51,7s-51.23-5.24-51.23-5.24c-1.88-16.14-20.57-52.86-17-53.64,2-.45,8.42,10.95,15,21,5.13,7.87,10.34,14.92,13.6,14.86,7.43-.13,7.65-22,9.73-22s1.28,22.3,11.63,19.44c5-1.35,7.9-15.71,10.13-30.21,2.39-15.61,4-31.42,6.66-31.46s4.79,15.7,7.72,31.21c2.74,14.41,6.15,28.66,11.18,29.83,10.45,2.5,8.87-19.79,10.95-19.83S221.56,91.11,229,91c3.26,0,8.22-7.28,13.06-15.32C248.26,65.36,254.29,53.74,256.29,54.12Z"/><path class="cls-44" d="M196,59.34c2.73,14.41,6.14,28.66,11.17,29.83a6.45,6.45,0,0,0,2,.18,7.12,7.12,0,0,1-1.54-.19c-5-1.17-8.44-15.42-11.18-29.83-2.93-15.51-5.1-31.26-7.72-31.21-.07,0-.14.06-.2.08C191,29,193.11,44.23,196,59.34Z"/><path class="cls-44" d="M169.93,90c-8.32-.29-7.77-19.72-9.7-19.68a.32.32,0,0,0-.2.08C161.76,71.72,161.5,90.34,169.93,90Z"/><path class="cls-44" d="M228.58,91l.17,0c-7.21-.34-8.2-21.67-10.25-21.64a.32.32,0,0,0-.2.08C220.24,70.76,221.4,91.12,228.58,91Z"/><path class="cls-44" d="M256.29,54.12a.63.63,0,0,0-.32.05c3.2,1.26-13.91,38.1-15.18,54.16,0,0-14.92,6.36-50.83,7h.2c36.06-.63,51-7,51-7C242.48,92.13,259.88,54.77,256.29,54.12Z"/><path class="cls-44" d="M136.5,77.49c5.13,7.87,10.34,14.92,13.59,14.87a1.75,1.75,0,0,0,.24,0c-3.27-.17-8.38-7.11-13.43-14.84-6.56-10.08-13-21.48-15-21,0,0,0,0-.07,0C124.14,57.15,130.26,67.91,136.5,77.49Z"/><path class="cls-45" d="M241.19,108.32a1.36,1.36,0,0,1,0,2.21c-.79.75-11,3.32-23.87,4.92a272.07,272.07,0,0,1-27.16,1.73c-8.5.15-18.56,0-27.23-.78-12.91-1.16-23.19-3.36-24-4.09a1.34,1.34,0,0,1,0-2.21s15.16,5.87,51.23,5.24S241.19,108.32,241.19,108.32Z"/><path class="cls-45" d="M241.23,110.53l.12,7s-11.95,6-51,6.71-51.23-4.94-51.23-4.94l-.12-7c.81.73,11.09,2.93,24,4.09,8.67.76,18.73.93,27.23.78a272.07,272.07,0,0,0,27.16-1.73C230.22,113.85,240.44,111.28,241.23,110.53Z"/><path class="cls-46" d="M226,56c14.93,4.63,16,19.68,16,19.68-4.84,8-9.8,15.27-13.06,15.32-7.43.13-8.42-21.68-10.49-21.65s-.5,22.33-10.95,19.83c-5-1.17-8.44-15.42-11.18-29.83C196.37,59.33,207.49,50.25,226,56Z"/><path class="cls-47" d="M241.19,108.32a1.36,1.36,0,0,1,0,2.21c-.79.75-11,3.32-23.87,4.92a272.07,272.07,0,0,1-27.16,1.73c-8.5.15-18.56,0-27.23-.78-12.91-1.16-23.19-3.36-24-4.09a1.34,1.34,0,0,1,0-2.21s15.16,5.87,51.23,5.24S241.19,108.32,241.19,108.32Z"/><path class="cls-48" d="M241.19,108.32a1.36,1.36,0,0,1,0,2.21c-.79.75-11,3.32-23.87,4.92a272.07,272.07,0,0,1-27.16,1.73c-8.5.15-18.56,0-27.23-.78-12.91-1.16-23.19-3.36-24-4.09a1.34,1.34,0,0,1,0-2.21s15.16,5.87,51.23,5.24S241.19,108.32,241.19,108.32Z"/><path class="cls-49" d="M241.19,108.32a1.36,1.36,0,0,1,0,2.21c-.79.75-11,3.32-23.87,4.92a272.07,272.07,0,0,1-27.16,1.73c-8.5.15-18.56,0-27.23-.78-12.91-1.16-23.19-3.36-24-4.09a1.34,1.34,0,0,1,0-2.21s15.16,5.87,51.23,5.24S241.19,108.32,241.19,108.32Z"/><path class="cls-50" d="M241.23,110.53l.12,7s-11.95,6-51,6.71-51.23-4.94-51.23-4.94l-.12-7c.81.73,11.09,2.93,24,4.09,8.67.76,18.73.93,27.23.78a272.07,272.07,0,0,0,27.16-1.73C230.22,113.85,240.44,111.28,241.23,110.53Z"/><path class="cls-46" d="M226,56c14.93,4.63,16,19.68,16,19.68-4.84,8-9.8,15.27-13.06,15.32-7.43.13-8.42-21.68-10.49-21.65s-.5,22.33-10.95,19.83c-5-1.17-8.44-15.42-11.18-29.83C196.37,59.33,207.49,50.25,226,56Z"/><path class="cls-51" d="M227.72,82.25a21.63,21.63,0,0,1-5.21.62c1.4,4.4,3.38,8.17,6.48,8.11s7.33-6,11.74-13.15C237,80.28,231.72,81.25,227.72,82.25Z"/><path class="cls-51" d="M203.09,73.13c-2.19-4.45-3.48-12.22-.64-17a23.09,23.09,0,0,0-6.08,3.21c2.74,14.41,6.15,28.66,11.18,29.83,4.6,1.11,6.87-2.61,8.15-7.11C210.34,80.7,205.37,77.74,203.09,73.13Z"/><path class="cls-52" d="M230.38,59.49c-4.86-3.13-17.47-5.24-22.18-2.44s-3,10.5,1.87,14.5c5.15,4.24,13.73,5.73,20.18,4.33C239.21,74,236.89,63.68,230.38,59.49Z"/><path class="cls-53" d="M219.07,57.37c-3.95-.06-5.29,4.18-3.29,7.25,2.45,3.78,10.24,6.84,14.49,4.9,7.47-3.43-3.39-9.86-6.69-11.12a11.72,11.72,0,0,0-5.32-1"/><path class="cls-53" d="M218.26,57.39c.24,0,.45,0,.67,0l.14,0Z"/><path class="cls-53" d="M218.93,57.72c-.22,0-.42,0-.66,0h.81l-.15,0a12.28,12.28,0,0,1,4.66,1c2.43.93,8.95,4.67,9.22,7.94.16-3.34-6.71-7.3-9.23-8.26a12.21,12.21,0,0,0-4.65-1,4.06,4.06,0,0,0-4,4.83A4,4,0,0,1,218.93,57.72Z"/><path class="cls-54" d="M220,55.18c-1.61.49-2.87,1.46-2.31,3.31.84,2.8,4.45,4.07,6.88,5,3.47,1.29,6.58,2.57,8.78,5.71,1.54,2.21,2.58,6.76,5,8.18s2.2-2.48,2-3.83a21,21,0,0,0-3.38-9c-2.52-3.43-9.68-8.86-18.27-9.22"/><path class="cls-46" d="M152.25,57.27c-14.76,5.14-15.35,20.22-15.35,20.22,5.12,7.86,10.33,14.92,13.59,14.86,7.43-.13,7.66-22,9.73-22s1.28,22.29,11.64,19.44c5-1.35,7.9-15.71,10.13-30.21C182,59.58,170.56,50.89,152.25,57.27Z"/><path class="cls-51" d="M151.46,83.58a22,22,0,0,0,5.23.43c-1.25,4.45-3.1,8.29-6.2,8.34S143,86.58,138.3,79.61C142.16,81.93,147.43,82.71,151.46,83.58Z"/><path class="cls-51" d="M175.75,73.61c2-4.52,3.06-12.34.05-17a23.34,23.34,0,0,1,6.19,3c-2.23,14.5-5.15,28.86-10.13,30.21-4.56,1.26-7-2.38-8.39-6.84C168.77,81.43,173.64,78.29,175.75,73.61Z"/><path class="cls-52" d="M148,60.92c4.75-3.29,17.28-5.84,22.08-3.21s3.37,10.39-1.36,14.56c-5,4.41-13.52,6.2-20,5C139.68,75.68,141.65,65.33,148,60.92Z"/><path class="cls-53" d="M159.23,58.41c4-.19,5.44,4,3.55,7.14-2.33,3.86-10,7.19-14.31,5.39-7.59-3.16,3-10,6.29-11.35A11.79,11.79,0,0,1,160,58.4"/><path class="cls-53" d="M160,58.4c-.23,0-.44,0-.66,0l-.15,0Z"/><path class="cls-53" d="M159.38,58.75c.22,0,.43,0,.67,0l-.81,0h.14a12.17,12.17,0,0,0-4.61,1.17c-2.4,1-8.78,5-9,8.26-.27-3.34,6.46-7.54,8.94-8.59a12.39,12.39,0,0,1,4.62-1.16,4.05,4.05,0,0,1,4.19,4.68A4,4,0,0,0,159.38,58.75Z"/><path class="cls-55" d="M158.26,56.25c1.63.44,2.91,1.37,2.43,3.23-.75,2.83-4.32,4.23-6.71,5.22-3.42,1.41-6.49,2.8-8.57,6-1.47,2.26-2.35,6.84-4.7,8.35s-2.28-2.4-2.12-3.76a20.91,20.91,0,0,1,3.06-9.09c2.4-3.52,9.37-9.2,17.94-9.86"/><path class="cls-56" d="M121.92,56.46c-1.71.37,1.74,9.09,6,19.82a32.82,32.82,0,0,1,3.35-7.7C126.94,61.73,123.33,56.14,121.92,56.46Z"/><path class="cls-57" d="M183.72,47.74a21,21,0,0,1,9.64-1,7.28,7.28,0,0,1,.76.15c-1.9-10.5-3.57-18.82-5.47-18.79S185.29,36.87,183.72,47.74Z"/><path class="cls-58" d="M256.29,54.12c-1.22-.23-4,4.05-7.33,9.76,1.31,2.28,2,5.8,2.35,9.41C255,62.8,258,54.42,256.29,54.12Z"/><path class="cls-59" d="M182.81,28.21a5.83,5.83,0,1,0,5.72-5.92A5.84,5.84,0,0,0,182.81,28.21Z"/><path class="cls-60" d="M190.05,32.58a5.84,5.84,0,0,1-5.92-5.74,5.74,5.74,0,0,1,1-3.39,5.76,5.76,0,0,0-2.36,4.76,5.81,5.81,0,0,0,10.61,3.21A5.81,5.81,0,0,1,190.05,32.58Z"/><path class="cls-61" d="M188.73,34a5.82,5.82,0,0,0,5.09-3.23,18.64,18.64,0,0,1-6.39-1.4,18.86,18.86,0,0,1-3.63-2.43c-.17-.14-.42-.36-.68-.6a5.56,5.56,0,0,0-.31,1.92A5.84,5.84,0,0,0,188.73,34Z"/><path class="cls-62" d="M188.73,34a5.8,5.8,0,0,0,4.38-9.54,13.28,13.28,0,0,1-2.67,6.46,10.5,10.5,0,0,1-3.62,2.77A5.79,5.79,0,0,0,188.73,34Z"/><path class="cls-63" d="M188,23.53c-1.55.9,1.64,2.87,2.5,3.95s1.31,2.17,2.4,1.73,1.15-2.88-.45-4.73A3.83,3.83,0,0,0,188,23.53Z"/><path class="cls-64" d="M117.92,55.74a3.92,3.92,0,1,0,3.84-4A3.92,3.92,0,0,0,117.92,55.74Z"/><path class="cls-60" d="M122.79,58.68a3.94,3.94,0,0,1-4-3.86,4,4,0,0,1,.7-2.28,3.87,3.87,0,0,0-1.58,3.2,3.91,3.91,0,0,0,7.13,2.16A3.88,3.88,0,0,1,122.79,58.68Z"/><path class="cls-65" d="M121.9,59.6a3.89,3.89,0,0,0,3.42-2.17,12.37,12.37,0,0,1-4.29-.94,12.08,12.08,0,0,1-2.44-1.63,4.73,4.73,0,0,1-.46-.41,3.71,3.71,0,0,0-.21,1.29A3.92,3.92,0,0,0,121.9,59.6Z"/><path class="cls-66" d="M121.9,59.6a3.92,3.92,0,0,0,3.85-4,3.82,3.82,0,0,0-.91-2.42,8.9,8.9,0,0,1-1.79,4.34,7,7,0,0,1-2.44,1.86A3.71,3.71,0,0,0,121.9,59.6Z"/><path class="cls-67" d="M121.41,52.6c-1,.6,1.1,1.93,1.68,2.65s.88,1.46,1.61,1.16.78-1.93-.3-3.17A2.57,2.57,0,0,0,121.41,52.6Z"/><path class="cls-68" d="M252.83,53.4a3.92,3.92,0,1,0,3.84-4A3.92,3.92,0,0,0,252.83,53.4Z"/><path class="cls-60" d="M257.7,56.33a3.92,3.92,0,0,1-3.29-6.14,3.92,3.92,0,0,0,2.4,7.06,3.88,3.88,0,0,0,3.15-1.7A3.79,3.79,0,0,1,257.7,56.33Z"/><path class="cls-69" d="M256.81,57.25a3.91,3.91,0,0,0,3.43-2.17,12.38,12.38,0,0,1-4.3-.94,11.94,11.94,0,0,1-2.44-1.63c-.11-.09-.29-.24-.46-.41a4,4,0,0,0-.21,1.3A3.92,3.92,0,0,0,256.81,57.25Z"/><path class="cls-70" d="M256.81,57.25a3.94,3.94,0,0,0,3.86-4,3.89,3.89,0,0,0-.92-2.42A8.9,8.9,0,0,1,258,55.18a7.06,7.06,0,0,1-2.43,1.87A3.86,3.86,0,0,0,256.81,57.25Z"/><path class="cls-71" d="M256.32,50.25c-1,.61,1.1,1.92,1.68,2.66s.88,1.45,1.61,1.16.78-1.94-.3-3.18A2.58,2.58,0,0,0,256.32,50.25Z"/><path class="cls-72" d="M138.93,110.1s15.16,5.87,51.23,5.24,51-7,51-7c0-.42.08-.87.14-1.32A71.68,71.68,0,0,1,221,106c-17.85-3.28-35.74-3.21-52.81-10Q161,93.17,154.2,90a4.68,4.68,0,0,1-3.7,2.4c-2.5,0-6.15-4.11-10-9.6A147.73,147.73,0,0,1,127,73.94C131.7,85.91,137.89,101.16,138.93,110.1Z"/><path class="cls-73" d="M232.31,120.29c-6.46.22-12.92.46-19.41.57-10.34.18-20.85.84-31.16.19-7.76-.49-32.27-2.45-36.52-3.67A48.55,48.55,0,0,1,139,115l.08,4.38s12.13,5.62,51.23,4.94C211.46,123.92,224.64,122,232.31,120.29Z"/><path class="cls-74" d="M210,110.85c-9.13,6.15-18.71,8.26-29.4,11.07-3.49.91-7,1.54-10.57,2.11,5.77.28,12.49.39,20.3.26,39.08-.68,51-6.71,51-6.71l-.12-7a1.36,1.36,0,0,0,0-2.21c1.29-16.19,18.69-53.55,15.1-54.2-2-.38-8,11.24-14.24,21.54-4.84,8-9.8,15.27-13.06,15.32a3.63,3.63,0,0,1-1.4-.25A55.34,55.34,0,0,1,210,110.85Z"/><path class="cls-75" d="M281.19,103.46c2.28.25,2.92,9.24,2.92,9.24s9.06,1.16,9.26,2.83-7.88,5.63-7.88,5.63,1.05,8.86.17,9.69-7.8-5.76-7.8-5.76-8.34,4-9.16,3.15,3.07-9.19,3.07-9.19-6.06-5.63-5.83-7.74,9.69.08,9.69.08S278.92,103.21,281.19,103.46Z"/><path class="cls-76" d="M87.14,113.22c2.23-.1,4.19,8.5,4.19,8.5s8.93-.22,9.37,1.36-6.78,6.61-6.78,6.61,2.33,8.4,1.6,9.34-8.38-4.41-8.38-4.41-7.47,5.12-8.39,4.41,1.6-9.34,1.6-9.34-6.69-4.54-6.78-6.61,9.37-1.36,9.37-1.36S84.9,113.32,87.14,113.22Z"/><path class="cls-77" d="M98.91,83.84c1.48-.4,4.09,5,4.09,5s5.93-1.49,6.47-.5-3.54,5.44-3.54,5.44,2.82,5.26,2.48,6-6.27-1.68-6.27-1.68-4.22,4.54-4.94,4.2-.34-6.48-.34-6.48-5.16-2-5.53-3.39,6.06-2.33,6.06-2.33S97.43,84.25,98.91,83.84Z"/></g></g></svg>